<svg width="148" height="56" viewBox="0 0 148 56" fill="none" xmlns="http://www.w3.org/2000/svg">
<path d="M32.0979 55L13.9259 31.13V55H0.758863V0.945998H13.9259V24.662L31.9439 0.945998H47.4209L26.4769 27.434L48.1909 55H32.0979ZM95.6433 18.348C95.6433 21.4793 94.9247 24.354 93.4873 26.972C92.05 29.5387 89.8427 31.6177 86.8653 33.209C83.888 34.8003 80.192 35.596 75.7773 35.596H67.6153V55H54.4483V0.945998H75.7773C80.0893 0.945998 83.734 1.69033 86.7113 3.179C89.6887 4.66766 91.9217 6.721 93.4103 9.339C94.899 11.957 95.6433 14.96 95.6433 18.348ZM74.7763 25.124C77.2917 25.124 79.1653 24.5337 80.3973 23.353C81.6293 22.1723 82.2453 20.504 82.2453 18.348C82.2453 16.192 81.6293 14.5237 80.3973 13.343C79.1653 12.1623 77.2917 11.572 74.7763 11.572H67.6153V25.124H74.7763ZM115.434 0.945998V33.286C115.434 36.52 116.23 39.0097 117.821 40.755C119.412 42.5003 121.748 43.373 124.828 43.373C127.908 43.373 130.269 42.5003 131.912 40.755C133.555 39.0097 134.376 36.52 134.376 33.286V0.945998H147.543V33.209C147.543 38.0343 146.516 42.1153 144.463 45.452C142.41 48.7887 139.638 51.304 136.147 52.998C132.708 54.692 128.858 55.539 124.597 55.539C120.336 55.539 116.512 54.7177 113.124 53.075C109.787 51.381 107.144 48.8657 105.193 45.529C103.242 42.141 102.267 38.0343 102.267 33.209V0.945998H115.434Z" fill="#5669FF"/>
</svg>
